<svg xmlns="http://www.w3.org/2000/svg" width="1600" height="900" viewBox="0 0 1600 900">
<defs>
  <linearGradient id="bg" x1="0" y1="0" x2="1" y2="1"><stop stop-color="#0b2f6b"/><stop offset="1" stop-color="#2d8cff"/></linearGradient>
  <radialGradient id="glow"><stop stop-color="#ffffff" stop-opacity=".42"/><stop offset="1" stop-color="#ffffff" stop-opacity="0"/></radialGradient>
  <filter id="shadow"><feDropShadow dx="0" dy="20" stdDeviation="25" flood-color="#071b42" flood-opacity=".22"/></filter>
</defs>
<rect width="1600" height="900" fill="url(#bg)"/>
<circle cx="1340" cy="130" r="420" fill="url(#glow)"/>
<path d="M0 720 C280 610 420 820 700 710 S1160 590 1600 760 V900 H0Z" fill="#fff" opacity=".10"/>
<g opacity=".16" stroke="#fff">
  <path d="M0 130H1600M0 260H1600M0 390H1600M0 520H1600M0 650H1600M0 780H1600"/>
  <path d="M180 0V900M360 0V900M540 0V900M720 0V900M900 0V900M1080 0V900M1260 0V900M1440 0V900"/>
</g>
<g transform="translate(1030 250)" filter="url(#shadow)"><g fill="none" stroke="#fff" stroke-width="18" stroke-linecap="round" stroke-linejoin="round">
<rect x="40" y="130" width="380" height="245" rx="70" fill="#fff" fill-opacity=".13"/>
<path d="M110 375v65m240-65v65"/><circle cx="110" cy="470" r="48" fill="#fff" fill-opacity=".18"/><circle cx="350" cy="470" r="48" fill="#fff" fill-opacity=".18"/>
<path d="M150 120V70h160v50M210 70V15h40"/><circle cx="225" cy="220" r="22" fill="#fff"/><circle cx="320" cy="220" r="22" fill="#fff"/>
<path d="M160 300c50 42 130 42 180 0"/>
</g></g>
<text x="120" y="575" fill="#fff" font-size="82" font-family="Arial, sans-serif" font-weight="700">QingQiong Q1</text>
<text x="125" y="645" fill="#fff" fill-opacity=".76" font-size="30" font-family="Arial, sans-serif" letter-spacing="4">AUTONOMOUS CLEANING ROBOT</text>
<rect x="120" y="690" width="150" height="8" rx="4" fill="#fff" fill-opacity=".86"/>
</svg>